<svg width="211" height="79" viewBox="0 0 211 79" fill="none" xmlns="http://www.w3.org/2000/svg">
<rect width="209.713" height="78.652" transform="translate(0.756836)" fill="#F9FAFB"/>
<g clip-path="url(#clip0_1402_470)">
<path d="M76.8118 18.8438C76.3143 18.8438 75.8114 18.8574 75.3139 18.8929C71.7866 19.1337 68.381 20.274 65.4251 22.2039C62.4693 24.1338 60.0628 26.7883 58.4375 29.9117C56.8121 33.0351 56.0227 36.5222 56.1452 40.0372C56.2677 43.5522 57.2979 46.9766 59.1368 49.9805C60.9756 52.9845 63.5611 55.4669 66.6442 57.1886C69.7273 58.9102 73.204 59.8132 76.7397 59.8104C80.2753 59.8077 83.7507 58.8994 86.8311 57.173C89.9115 55.4466 92.4931 52.9602 94.3272 49.9534H111.782L115.432 58.8251H123.089L126.739 49.9534H144.101L147.811 58.8251H155.094L138.642 19.4561H132.008L119.269 50.4701L106.514 19.448H99.8845L89.3939 44.3433C85.9447 52.5261 76.5589 55.1452 69.8116 51.2712C68.2342 50.3663 66.8514 49.1611 65.7422 47.7246C64.633 46.2881 63.8191 44.6483 63.347 42.8989C62.3934 39.3657 62.8899 35.6005 64.7271 32.4315C66.5644 29.2625 69.5919 26.9493 73.1437 26.0008C76.6954 25.0522 80.4805 25.5461 83.6663 27.3737C84.0975 27.6247 84.5149 27.8985 84.9168 28.1939L87.8108 22.0398C87.558 21.8784 87.2914 21.7335 87.0303 21.5832C83.9259 19.7913 80.401 18.8463 76.8118 18.8438ZM103.174 29.0195L109.026 43.258H97.224L103.174 29.0195ZM135.35 29.0195L141.3 43.258H129.498L135.35 29.0195Z" fill="#9CA3AF"/>
</g>
<defs>
<clipPath id="clip0_1402_470">
<rect width="100" height="42" fill="white" transform="translate(55.6133 18.3262)"/>
</clipPath>
</defs>
</svg>
